<svg xmlns="http://www.w3.org/2000/svg" viewBox="0 0 44 44"><rect width="44" height="44" rx="8" fill="#0b3d68"/><path transform="translate(8.9,5) scale(0.283)" fill="#ffffff" d="M40.3,112.1 L37.8,114.1 L36.8,114.8 L36.0,116.5 L35.2,117.6 L34.7,118.4 L33.8,119.5 L32.4,119.2 L31.6,119.0 L31.0,118.6 L30.8,117.5 L30.3,117.3 L27.7,115.6 L26.3,111.3 L26.2,109.0 L23.2,104.9 L20.9,106.7 L20.5,107.9 L19.8,108.3 L19.4,109.6 L18.1,103.8 L14.0,97.4 L11.2,87.5 L11.7,80.1 L6.9,75.9 L4.7,71.1 L10.7,63.9 L14.8,57.1 L12.0,49.3 L15.6,40.1 L0.5,30.3 L0.0,25.0 L1.3,19.6 L2.9,13.3 L24.9,14.5 L25.3,11.7 L25.6,8.5 L26.4,6.2 L29.1,3.4 L32.1,3.4 L34.8,2.0 L36.7,2.1 L38.3,2.3 L40.2,2.9 L42.3,2.1 L43.4,1.5 L44.0,0.5 L45.0,0.1 L46.2,0.5 L47.4,1.5 L48.0,2.0 L48.5,3.7 L48.9,4.8 L49.2,5.9 L66.1,9.9 L67.9,14.7 L68.3,14.6 L68.7,14.5 L69.4,14.3 L70.0,13.6 L70.8,13.8 L71.6,13.0 L72.2,11.9 L73.8,11.1 L74.7,10.6 L75.9,10.2 L77.2,10.2 L78.1,10.8 L79.1,11.2 L79.9,11.0 L81.2,11.0 L82.0,11.1 L82.8,11.3 L83.6,11.1 L84.1,10.8 L84.8,10.7 L85.4,10.3 L85.7,10.7 L86.5,10.4 L86.9,10.0 L87.8,10.0 L88.5,10.2 L89.1,10.4 L89.5,10.0 L90.4,10.2 L91.4,9.9 L91.9,11.7 L90.3,23.2 L90.7,28.7 L78.3,54.3 L65.6,87.0 L63.0,104.1 L44.5,109.8 L40.3,112.1 Z"/><circle cx="23.7" cy="18.3" r="1.7" fill="#1c6fb8"/></svg>
